<svg height="512" viewBox="0 0 512.025 512.025" width="512" xmlns="http://www.w3.org/2000/svg"><path d="M233.327 290.437c-6.224 6.224-16.315 6.224-22.539 0l-60.57-60.56-24.473 23.134 97.259 97.243L386.79 186.495l-24.751-24.747z"/><path d="M256.013 0C114.643 0 .04 114.621.04 256.012s114.603 256.012 255.973 256.012 255.973-114.621 255.973-256.012S397.382 0 256.013 0zm164.585 197.763L234.273 384.057c-3.112 3.112-7.191 4.667-11.27 4.667s-8.158-1.556-11.27-4.667L91.615 263.959a15.932 15.932 0 01.32-22.847l47.644-45.039c6.269-5.927 16.118-5.789 22.219.311l60.259 60.248 128.711-128.689c6.224-6.224 16.315-6.224 22.539 0l47.291 47.283c6.225 6.224 6.225 16.313 0 22.537z"/></svg>