<svg data-name="Layer 1" xmlns="http://www.w3.org/2000/svg" viewBox="0 0 15 15"><path d="M8.93 0c-.28-.16-2.77 2.3-3.27 5.36a5.79 5.79 0 00-.06 2.22 10.25 10.25 0 00.6 2.26A1.49 1.49 0 016.38 11a.69.69 0 01-.35.35.73.73 0 01-.62-.08A1.79 1.79 0 014.7 10a9.42 9.42 0 01-.28-2.42c.19-2.38 1.1-3.87.93-3.95S4 4.93 3.33 6.68a11.55 11.55 0 00-.53 1.66 7.34 7.34 0 00-.15 3.1 5.19 5.19 0 00.14.53 4.79 4.79 0 001 1.82A3.28 3.28 0 006.47 15a3 3 0 001.71-1A3.6 3.6 0 009 12.54a4 4 0 00-.06-2.66l-.26-.49c-.24-.45-.4-.66-.53-.88a4.73 4.73 0 01-.57-1.41c-.15-.6-.22-1.36-.11-1.39a9.41 9.41 0 001.28 2.71 7.91 7.91 0 011 1.3 4.1 4.1 0 01.47 1.11 3.62 3.62 0 010 1.39C10 13.88 9 14.76 9.16 15s1.12-.37 1.79-1a4.4 4.4 0 001.32-2 3.66 3.66 0 00.16-.78 4.48 4.48 0 00-.18-1.83 4.67 4.67 0 00-.78-1.49 8 8 0 00-.86-.9c-.45-.41-.57-.44-.83-.69a4.18 4.18 0 01-1-1.51 5.58 5.58 0 01-.43-2.17A8.58 8.58 0 018.81.49C8.92.1 9 0 8.93 0z" fill="#de3e28"/></svg>