<svg xmlns="http://www.w3.org/2000/svg" viewBox="0 0 52.65 50"><ellipse cx="-31.06" cy="14.88" rx=".04" ry=".02" fill="#8aff55"/><path d="M49.81 16.38c0 3.27-.77 6.15-2.63 8.83-1.39 2.16-2.92 4.61-8.79 10.62C31.14 43.23 27.63 46 26.33 47.1c-1.3-1.1-4.81-3.87-12.05-11.27-5.88-6.01-7.41-8.46-8.8-10.62-1.87-2.67-2.63-5.55-2.63-8.83 0-7.45 6.03-13.48 13.5-13.48 3.94 0 7.51 1.68 9.98 4.35a13.62 13.62 0 019.98-4.35c7.47 0 13.5 6.03 13.5 13.48z" fill="#e86da8" stroke="#e86da8" stroke-miterlimit="10"/></svg>