<svg xmlns="http://www.w3.org/2000/svg" viewBox="0 0 512 512"><path d="M496 108.132H273.456l-72.584-71.256H0v422.24c0 8.808 7.2 16.008 16 16.008h480c8.8 0 16-7.2 16-16V124.132c0-8.8-7.2-16-16-16zM32 68.868h155.8l39.984 39.256H32V68.868zm448 374.256H32V140.132h448v302.992z"/><path d="M323.536 342.452c16.936-17.384 27.4-40.784 27.4-66.56 0-53.456-44.72-96.944-99.688-96.944s-99.688 43.488-99.688 96.944 44.728 96.944 99.696 96.944c16.768 0 32.56-4.088 46.44-11.232l39.104 42.824 23.624-21.576-36.888-40.4zm-72.28-1.608c-37.32 0-67.688-29.136-67.688-64.944 0-35.816 30.368-64.944 67.688-64.944 37.32 0 67.688 29.136 67.688 64.944 0 35.816-30.368 64.944-67.688 64.944z"/></svg>