<svg version="1.1" id="Layer_1" xmlns="http://www.w3.org/2000/svg" xmlns:xlink="http://www.w3.org/1999/xlink" x="0" y="0" viewBox="0 0 14 16" xml:space="preserve"><style>.st1{stroke-linecap:round}.st1,.st2{fill:none;stroke:#a2a2a2;stroke-width:.7}</style><defs><path id="SVGID_1_" d="M.5.4h13.4v15.4H.5z"/></defs><clipPath id="SVGID_2_"><use xlink:href="#SVGID_1_" overflow="visible"/></clipPath><g clip-path="url(#SVGID_2_)"><path class="st1" d="M3 5.4v10.1M3 .9v1M7.3.9v9M7.3 13.3v2.3M11.4.9v3.7M11.4 7.5v8"/><path class="st2" d="M9.9 6.1c0 .8.7 1.4 1.5 1.4s1.5-.6 1.5-1.4-.7-1.4-1.5-1.4-1.5.6-1.5 1.4zM1.5 3.6C1.5 4.4 2.2 5 3 5s1.5-.6 1.5-1.4S3.9 2.1 3 2.1c-.8 0-1.5.7-1.5 1.5zM5.8 11.6c0 .8.7 1.4 1.5 1.4s1.5-.6 1.5-1.4c0-.8-.7-1.4-1.5-1.4-.8-.1-1.5.6-1.5 1.4z"/></g></svg>