<svg viewBox="0 0 24 24" xmlns="http://www.w3.org/2000/svg"><path d="M12 16a.75.75 0 01-.75-.75v-.407c0-1.009.538-1.918 1.37-2.317.556-.267 1.052-.971.825-1.883-.129-.519-.547-.957-1.04-1.088a1.447 1.447 0 00-1.285.247 1.62 1.62 0 00-.62 1.282.75.75 0 11-1.5-.001c0-.968.451-1.893 1.206-2.472a2.958 2.958 0 012.587-.506c1.02.273 1.847 1.127 2.107 2.175.368 1.48-.303 2.959-1.631 3.597-.311.149-.519.537-.519.965v.407A.75.75 0 0112 16z"/><path d="M21.25 23H2.75A2.752 2.752 0 010 20.25V3.75A2.752 2.752 0 012.75 1h18.5A2.752 2.752 0 0124 3.75v16.5A2.752 2.752 0 0121.25 23zM2.75 2.5c-.689 0-1.25.561-1.25 1.25v16.5c0 .689.561 1.25 1.25 1.25h18.5c.689 0 1.25-.561 1.25-1.25V3.75c0-.689-.561-1.25-1.25-1.25z"/><path d="M23.25 6H.75a.75.75 0 010-1.5h22.5a.75.75 0 010 1.5z"/><circle cx="12" cy="17.75" r=".75"/></svg>